# xmcd CD database file generated by libcdaudio 0.99.1
# 
# Track frame offsets:
#       150
#       16896
#       34132
#       51400
#       77116
#       88393
# 
# Disc length: 1710 seconds
# 
# Revision: 1
# Processed by: cddbd v1.4PL0 Copyright (c) Steve Scherf et al.
# Submitted via: libcdaudio 0.99.1
# 
DISCID=4806ac06
DTITLE=Gazzary Bluesband - Gazzary Demo 2001
DYEAR=1900
DGENRE=
TTITLE0=All Your Love
TTITLE1=Big Leg Women
TTITLE2=Fool For You
TTITLE3=Help Me
TTITLE4=Not Me
TTITLE5=Stormy Monday
EXTD=
EXTT0=
EXTT1=
EXTT2=
EXTT3=
EXTT4=
EXTT5=
PLAYORDER=
